<svg width="200" height="200" viewBox="0 0 200 200" fill="none" xmlns="http://www.w3.org/2000/svg">
<g clip-path="url(#clip0_7_34)">
<path d="M145.572 76.9173C88.5711 135.797 31.3651 110.615 26.6921 108.412C26.5966 108.355 26.4919 108.307 26.3869 108.265L26.382 108.26C26.0006 108.102 25.576 108.012 25.1326 108.012C23.3348 108.012 21.8757 109.466 21.8757 111.263C21.8757 112.599 22.6817 113.748 23.8307 114.248C109.823 190.037 176.876 113.081 176.876 113.081L145.572 76.9173Z" fill="#FFEECD" stroke="black" stroke-width="2.34374"/>
<path d="M84.3556 146.102C86.592 146.512 88.8 146.836 90.979 147.074C93.6253 140.032 93.9924 131.869 92.0087 123.166C90.9549 118.545 89.4626 114.726 88.385 112.309C86.1867 112.89 84.0217 113.386 81.9001 113.801C83.8978 117.944 90.1779 132.869 84.3556 146.102Z" fill="#F5BA45" stroke="black" stroke-width="2.34374"/>
<path d="M61.4869 115.622C63.5136 119.651 68.1912 130.814 63.1654 139.712C65.2251 140.58 67.2662 141.367 69.288 142.077C72.1488 136.484 72.7119 129.741 70.8902 122.322C70.2466 119.699 69.3976 117.358 68.5965 115.474C66.1501 115.613 63.7758 115.655 61.4869 115.622Z" fill="#F5BA45" stroke="black" stroke-width="2.34374"/>
<path d="M85.7333 117.733C86.7108 116.756 88.2927 116.756 89.2667 117.733C90.2444 118.707 90.2444 120.293 89.2667 121.267C88.2927 122.244 86.7108 122.244 85.7333 121.267C84.7556 120.293 84.7556 118.707 85.7333 117.733Z" fill="#D94452" stroke="black" stroke-width="2"/>
<path d="M87.7333 127.733C88.7108 126.756 90.2927 126.756 91.2667 127.733C92.2444 128.707 92.2444 130.293 91.2667 131.267C90.2927 132.244 88.7108 132.244 87.7333 131.267C86.7556 130.293 86.7556 128.707 87.7333 127.733Z" fill="#D94452" stroke="black" stroke-width="2"/>
<path d="M87.7333 138.733C88.7108 137.756 90.2927 137.756 91.2667 138.733C92.2444 139.707 92.2444 141.293 91.2667 142.267C90.2927 143.244 88.7108 143.244 87.7333 142.267C86.7556 141.293 86.7556 139.707 87.7333 138.733Z" fill="#D94452" stroke="black" stroke-width="2"/>
<path d="M129.837 91.1462L160.297 127.495C162.181 126.151 163.921 124.83 165.504 123.566L134.872 87.0217C133.189 88.4615 131.51 89.8397 129.837 91.1462Z" fill="#F5BA45" stroke="black" stroke-width="2.34374"/>
<path d="M142.514 97.2517C142.514 99.0496 141.054 100.509 139.257 100.509C137.459 100.509 136 99.0496 136 97.2517C136 95.4539 137.459 94 139.257 94C141.054 94 142.514 95.4539 142.514 97.2517Z" fill="#79FF9D" stroke="black" stroke-width="2"/>
<path d="M149.37 105.525C149.37 107.323 147.912 108.782 146.114 108.782C144.316 108.782 142.862 107.323 142.862 105.525C142.862 103.727 144.316 102.273 146.114 102.273C147.911 102.273 149.37 103.727 149.37 105.525Z" fill="#79FF9D" stroke="black" stroke-width="2"/>
<path d="M156 113.998C156 115.655 154.659 117 153.002 117C151.345 117 150 115.655 150 113.998C150 112.341 151.345 111 153.002 111C154.66 111 156 112.341 156 113.998Z" fill="#79FF9D" stroke="black" stroke-width="2"/>
<g opacity="0.1">
<path d="M23.831 114.249C109.824 190.037 176.876 113.081 176.876 113.081L173.91 109.647C95.2943 184.32 22.6816 113.748 23.831 114.249Z" fill="black" stroke="black" stroke-width="2.34374"/>
</g>
<path d="M174.874 118.459C173.968 118.459 173.067 118.083 172.423 117.348L140.904 81.4426C139.721 80.0931 139.855 78.0379 141.204 76.8505C142.553 75.663 144.613 75.7967 145.796 77.1508L177.315 113.056C178.502 114.406 178.369 116.461 177.019 117.648C176.399 118.192 175.637 118.459 174.874 118.459Z" fill="#FFEECD" stroke="black" stroke-width="2.34374"/>
<path d="M99.9631 121.636V126H99.4602V121.636H99.9631ZM102.214 126.068C101.918 126.068 101.659 125.998 101.436 125.857C101.214 125.717 101.041 125.52 100.916 125.267C100.792 125.014 100.731 124.719 100.731 124.381C100.731 124.04 100.792 123.742 100.916 123.488C101.041 123.234 101.214 123.036 101.436 122.896C101.659 122.755 101.918 122.685 102.214 122.685C102.509 122.685 102.768 122.755 102.989 122.896C103.212 123.036 103.385 123.234 103.509 123.488C103.634 123.742 103.697 124.04 103.697 124.381C103.697 124.719 103.634 125.014 103.509 125.267C103.385 125.52 103.212 125.717 102.989 125.857C102.768 125.998 102.509 126.068 102.214 126.068ZM102.214 125.616C102.438 125.616 102.623 125.559 102.768 125.444C102.912 125.329 103.02 125.178 103.089 124.99C103.159 124.803 103.194 124.599 103.194 124.381C103.194 124.162 103.159 123.958 103.089 123.769C103.02 123.58 102.912 123.428 102.768 123.311C102.623 123.195 102.438 123.136 102.214 123.136C101.989 123.136 101.805 123.195 101.66 123.311C101.515 123.428 101.407 123.58 101.338 123.769C101.268 123.958 101.233 124.162 101.233 124.381C101.233 124.599 101.268 124.803 101.338 124.99C101.407 125.178 101.515 125.329 101.66 125.444C101.805 125.559 101.989 125.616 102.214 125.616ZM105.794 126.068C105.487 126.068 105.223 125.996 105.001 125.851C104.779 125.706 104.609 125.506 104.49 125.252C104.37 124.998 104.311 124.707 104.311 124.381C104.311 124.048 104.372 123.755 104.494 123.501C104.618 123.245 104.789 123.045 105.01 122.902C105.231 122.757 105.49 122.685 105.785 122.685C106.015 122.685 106.223 122.727 106.407 122.812C106.592 122.898 106.743 123.017 106.861 123.17C106.979 123.324 107.052 123.503 107.081 123.707H106.578C106.539 123.558 106.454 123.426 106.322 123.311C106.191 123.195 106.015 123.136 105.794 123.136C105.598 123.136 105.426 123.187 105.278 123.29C105.132 123.391 105.017 123.533 104.935 123.718C104.854 123.901 104.814 124.116 104.814 124.364C104.814 124.616 104.853 124.837 104.933 125.024C105.014 125.212 105.127 125.357 105.274 125.461C105.422 125.565 105.595 125.616 105.794 125.616C105.924 125.616 106.043 125.594 106.15 125.548C106.256 125.503 106.346 125.438 106.42 125.352C106.494 125.267 106.547 125.165 106.578 125.045H107.081C107.052 125.239 106.982 125.413 106.87 125.567C106.759 125.721 106.612 125.843 106.429 125.934C106.247 126.023 106.035 126.068 105.794 126.068ZM108.779 126.077C108.571 126.077 108.383 126.038 108.214 125.96C108.045 125.88 107.911 125.766 107.811 125.616C107.712 125.466 107.662 125.284 107.662 125.071C107.662 124.884 107.699 124.732 107.773 124.615C107.847 124.497 107.946 124.405 108.069 124.338C108.193 124.271 108.329 124.222 108.478 124.189C108.629 124.155 108.78 124.128 108.932 124.108C109.131 124.082 109.292 124.063 109.416 124.05C109.541 124.036 109.632 124.013 109.689 123.98C109.747 123.947 109.776 123.891 109.776 123.81V123.793C109.776 123.582 109.718 123.419 109.603 123.303C109.49 123.186 109.317 123.128 109.086 123.128C108.846 123.128 108.657 123.18 108.521 123.286C108.385 123.391 108.289 123.503 108.233 123.622L107.756 123.452C107.841 123.253 107.955 123.098 108.097 122.987C108.24 122.875 108.397 122.797 108.566 122.753C108.736 122.707 108.904 122.685 109.069 122.685C109.174 122.685 109.294 122.697 109.431 122.723C109.569 122.747 109.701 122.798 109.829 122.874C109.958 122.951 110.066 123.067 110.151 123.222C110.236 123.376 110.279 123.584 110.279 123.844V126H109.776V125.557H109.75C109.716 125.628 109.659 125.704 109.58 125.785C109.5 125.866 109.395 125.935 109.262 125.991C109.13 126.048 108.969 126.077 108.779 126.077ZM108.855 125.625C109.054 125.625 109.222 125.586 109.358 125.508C109.496 125.43 109.6 125.329 109.669 125.205C109.74 125.082 109.776 124.952 109.776 124.815V124.355C109.755 124.381 109.708 124.404 109.635 124.425C109.564 124.445 109.482 124.463 109.388 124.479C109.296 124.493 109.206 124.506 109.118 124.517C109.031 124.527 108.961 124.536 108.907 124.543C108.776 124.56 108.654 124.587 108.54 124.626C108.428 124.663 108.337 124.719 108.267 124.794C108.199 124.868 108.165 124.969 108.165 125.097C108.165 125.271 108.23 125.403 108.359 125.493C108.49 125.581 108.655 125.625 108.855 125.625ZM111.699 121.636V126H111.197V121.636H111.699ZM113.123 124.031V126H112.62V121.636H113.123V123.239H113.166C113.243 123.07 113.358 122.935 113.511 122.836C113.666 122.735 113.872 122.685 114.129 122.685C114.352 122.685 114.547 122.729 114.715 122.819C114.882 122.907 115.012 123.043 115.105 123.226C115.199 123.408 115.245 123.639 115.245 123.92V126H114.743V123.955C114.743 123.695 114.675 123.494 114.54 123.352C114.407 123.208 114.221 123.136 113.984 123.136C113.819 123.136 113.672 123.171 113.541 123.241C113.412 123.31 113.309 123.412 113.234 123.545C113.16 123.679 113.123 123.841 113.123 124.031ZM117.495 126.068C117.199 126.068 116.94 125.998 116.717 125.857C116.496 125.717 116.322 125.52 116.197 125.267C116.074 125.014 116.012 124.719 116.012 124.381C116.012 124.04 116.074 123.742 116.197 123.488C116.322 123.234 116.496 123.036 116.717 122.896C116.94 122.755 117.199 122.685 117.495 122.685C117.79 122.685 118.049 122.755 118.27 122.896C118.493 123.036 118.667 123.234 118.79 123.488C118.915 123.742 118.978 124.04 118.978 124.381C118.978 124.719 118.915 125.014 118.79 125.267C118.667 125.52 118.493 125.717 118.27 125.857C118.049 125.998 117.79 126.068 117.495 126.068ZM117.495 125.616C117.719 125.616 117.904 125.559 118.049 125.444C118.194 125.329 118.301 125.178 118.371 124.99C118.44 124.803 118.475 124.599 118.475 124.381C118.475 124.162 118.44 123.958 118.371 123.769C118.301 123.58 118.194 123.428 118.049 123.311C117.904 123.195 117.719 123.136 117.495 123.136C117.27 123.136 117.086 123.195 116.941 123.311C116.796 123.428 116.689 123.58 116.619 123.769C116.55 123.958 116.515 124.162 116.515 124.381C116.515 124.599 116.55 124.803 116.619 124.99C116.689 125.178 116.796 125.329 116.941 125.444C117.086 125.559 117.27 125.616 117.495 125.616ZM122.064 123.46L121.612 123.588C121.583 123.513 121.542 123.44 121.486 123.369C121.432 123.296 121.358 123.237 121.265 123.19C121.171 123.143 121.051 123.119 120.904 123.119C120.704 123.119 120.537 123.165 120.404 123.258C120.272 123.349 120.206 123.464 120.206 123.605C120.206 123.73 120.251 123.829 120.342 123.901C120.433 123.974 120.575 124.034 120.768 124.082L121.254 124.202C121.547 124.273 121.765 124.381 121.908 124.528C122.051 124.673 122.123 124.859 122.123 125.088C122.123 125.276 122.069 125.443 121.961 125.591C121.855 125.739 121.706 125.855 121.514 125.94C121.322 126.026 121.099 126.068 120.845 126.068C120.511 126.068 120.235 125.996 120.016 125.851C119.797 125.706 119.659 125.494 119.6 125.216L120.078 125.097C120.123 125.273 120.209 125.405 120.336 125.493C120.463 125.581 120.63 125.625 120.836 125.625C121.071 125.625 121.257 125.575 121.395 125.476C121.534 125.375 121.603 125.254 121.603 125.114C121.603 125 121.564 124.905 121.484 124.828C121.404 124.75 121.282 124.692 121.118 124.653L120.572 124.526C120.272 124.455 120.052 124.344 119.912 124.195C119.772 124.045 119.703 123.857 119.703 123.631C119.703 123.446 119.755 123.283 119.858 123.141C119.963 122.999 120.106 122.887 120.287 122.806C120.468 122.725 120.674 122.685 120.904 122.685C121.228 122.685 121.483 122.756 121.667 122.898C121.853 123.04 121.985 123.227 122.064 123.46ZM124.303 122.727V123.153H122.607V122.727H124.303ZM123.102 121.943H123.605V125.062C123.605 125.205 123.625 125.311 123.666 125.382C123.709 125.452 123.763 125.499 123.828 125.523C123.895 125.545 123.965 125.557 124.039 125.557C124.095 125.557 124.14 125.554 124.176 125.548C124.211 125.541 124.24 125.536 124.261 125.531L124.363 125.983C124.329 125.996 124.281 126.009 124.22 126.021C124.159 126.036 124.082 126.043 123.988 126.043C123.846 126.043 123.707 126.012 123.57 125.951C123.436 125.89 123.323 125.797 123.234 125.672C123.146 125.547 123.102 125.389 123.102 125.199V121.943ZM125.426 126.034C125.321 126.034 125.231 125.996 125.156 125.921C125.08 125.846 125.043 125.756 125.043 125.651C125.043 125.545 125.08 125.455 125.156 125.38C125.231 125.305 125.321 125.267 125.426 125.267C125.531 125.267 125.622 125.305 125.697 125.38C125.772 125.455 125.81 125.545 125.81 125.651C125.81 125.72 125.792 125.784 125.757 125.842C125.722 125.901 125.676 125.947 125.618 125.983C125.561 126.017 125.497 126.034 125.426 126.034ZM125.426 123.605C125.321 123.605 125.231 123.567 125.156 123.492C125.08 123.417 125.043 123.327 125.043 123.222C125.043 123.116 125.08 123.026 125.156 122.951C125.231 122.876 125.321 122.838 125.426 122.838C125.531 122.838 125.622 122.876 125.697 122.951C125.772 123.026 125.81 123.116 125.81 123.222C125.81 123.291 125.792 123.355 125.757 123.413C125.722 123.472 125.676 123.518 125.618 123.554C125.561 123.588 125.497 123.605 125.426 123.605ZM128.178 126.06C127.897 126.06 127.646 126.011 127.426 125.915C127.207 125.818 127.033 125.684 126.904 125.512C126.776 125.339 126.706 125.138 126.695 124.909H127.232C127.243 125.05 127.292 125.171 127.377 125.273C127.462 125.374 127.574 125.452 127.711 125.508C127.849 125.563 128.002 125.591 128.17 125.591C128.357 125.591 128.523 125.558 128.668 125.493C128.813 125.428 128.927 125.337 129.009 125.22C129.091 125.104 129.133 124.969 129.133 124.815C129.133 124.655 129.093 124.513 129.013 124.391C128.934 124.268 128.817 124.171 128.664 124.102C128.51 124.032 128.323 123.997 128.101 123.997H127.752V123.528H128.101C128.275 123.528 128.427 123.497 128.557 123.435C128.689 123.372 128.792 123.284 128.866 123.17C128.942 123.057 128.979 122.923 128.979 122.77C128.979 122.622 128.947 122.494 128.881 122.384C128.816 122.275 128.724 122.19 128.604 122.129C128.486 122.067 128.347 122.037 128.187 122.037C128.036 122.037 127.894 122.065 127.76 122.12C127.628 122.174 127.52 122.253 127.437 122.357C127.353 122.459 127.307 122.582 127.3 122.727H126.789C126.797 122.499 126.866 122.298 126.996 122.126C127.125 121.953 127.294 121.818 127.503 121.722C127.713 121.625 127.944 121.577 128.195 121.577C128.465 121.577 128.697 121.631 128.89 121.741C129.083 121.849 129.231 121.991 129.335 122.169C129.439 122.347 129.491 122.538 129.491 122.744C129.491 122.99 129.426 123.2 129.297 123.373C129.169 123.546 128.995 123.666 128.775 123.733V123.767C129.05 123.812 129.265 123.93 129.42 124.119C129.575 124.306 129.653 124.538 129.653 124.815C129.653 125.053 129.588 125.266 129.459 125.455C129.331 125.642 129.156 125.79 128.934 125.898C128.713 126.006 128.461 126.06 128.178 126.06ZM131.947 126.06C131.626 126.06 131.353 125.972 131.127 125.798C130.901 125.621 130.729 125.366 130.609 125.033C130.49 124.697 130.43 124.293 130.43 123.818C130.43 123.347 130.49 122.944 130.609 122.61C130.73 122.275 130.903 122.019 131.129 121.843C131.356 121.665 131.629 121.577 131.947 121.577C132.265 121.577 132.537 121.665 132.763 121.843C132.991 122.019 133.164 122.275 133.283 122.61C133.404 122.944 133.464 123.347 133.464 123.818C133.464 124.293 133.405 124.697 133.285 125.033C133.166 125.366 132.993 125.621 132.768 125.798C132.542 125.972 132.268 126.06 131.947 126.06ZM131.947 125.591C132.265 125.591 132.513 125.437 132.689 125.131C132.865 124.824 132.953 124.386 132.953 123.818C132.953 123.44 132.912 123.119 132.831 122.853C132.752 122.587 132.637 122.385 132.486 122.246C132.337 122.107 132.157 122.037 131.947 122.037C131.632 122.037 131.385 122.192 131.208 122.504C131.03 122.813 130.942 123.251 130.942 123.818C130.942 124.196 130.981 124.517 131.061 124.781C131.14 125.045 131.255 125.246 131.404 125.384C131.555 125.522 131.736 125.591 131.947 125.591ZM135.697 126.06C135.376 126.06 135.103 125.972 134.877 125.798C134.651 125.621 134.479 125.366 134.359 125.033C134.24 124.697 134.18 124.293 134.18 123.818C134.18 123.347 134.24 122.944 134.359 122.61C134.48 122.275 134.653 122.019 134.879 121.843C135.106 121.665 135.379 121.577 135.697 121.577C136.015 121.577 136.287 121.665 136.513 121.843C136.741 122.019 136.914 122.275 137.033 122.61C137.154 122.944 137.214 123.347 137.214 123.818C137.214 124.293 137.155 124.697 137.035 125.033C136.916 125.366 136.743 125.621 136.518 125.798C136.292 125.972 136.018 126.06 135.697 126.06ZM135.697 125.591C136.015 125.591 136.263 125.437 136.439 125.131C136.615 124.824 136.703 124.386 136.703 123.818C136.703 123.44 136.662 123.119 136.581 122.853C136.502 122.587 136.387 122.385 136.236 122.246C136.087 122.107 135.907 122.037 135.697 122.037C135.382 122.037 135.135 122.192 134.958 122.504C134.78 122.813 134.692 123.251 134.692 123.818C134.692 124.196 134.731 124.517 134.811 124.781C134.89 125.045 135.005 125.246 135.154 125.384C135.305 125.522 135.486 125.591 135.697 125.591ZM139.447 126.06C139.126 126.06 138.853 125.972 138.627 125.798C138.401 125.621 138.229 125.366 138.109 125.033C137.99 124.697 137.93 124.293 137.93 123.818C137.93 123.347 137.99 122.944 138.109 122.61C138.23 122.275 138.403 122.019 138.629 121.843C138.856 121.665 139.129 121.577 139.447 121.577C139.765 121.577 140.037 121.665 140.263 121.843C140.491 122.019 140.664 122.275 140.783 122.61C140.904 122.944 140.964 123.347 140.964 123.818C140.964 124.293 140.905 124.697 140.785 125.033C140.666 125.366 140.493 125.621 140.268 125.798C140.042 125.972 139.768 126.06 139.447 126.06ZM139.447 125.591C139.765 125.591 140.013 125.437 140.189 125.131C140.365 124.824 140.453 124.386 140.453 123.818C140.453 123.44 140.412 123.119 140.331 122.853C140.252 122.587 140.137 122.385 139.986 122.246C139.837 122.107 139.657 122.037 139.447 122.037C139.132 122.037 138.885 122.192 138.708 122.504C138.53 122.813 138.442 123.251 138.442 123.818C138.442 124.196 138.481 124.517 138.561 124.781C138.64 125.045 138.755 125.246 138.904 125.384C139.055 125.522 139.236 125.591 139.447 125.591Z" fill="#61AB3A"/>
</g>
<defs>
<clipPath id="clip0_7_34">
<rect width="200" height="200" fill="white"/>
</clipPath>
</defs>
</svg>
